<?xml version="1.0" encoding="utf-8"?>
<!-- Generator: Adobe Illustrator 16.0.0, SVG Export Plug-In . SVG Version: 6.00 Build 0)  -->
<!DOCTYPE svg PUBLIC "-//W3C//DTD SVG 1.1//EN" "http://www.w3.org/Graphics/SVG/1.1/DTD/svg11.dtd">
<svg version="1.1" id="Layer_1" xmlns="http://www.w3.org/2000/svg" xmlns:xlink="http://www.w3.org/1999/xlink" x="0px" y="0px"
	 width="167.082px" height="216.619px" viewBox="0 0 167.082 216.619" enable-background="new 0 0 167.082 216.619"
	 xml:space="preserve">
<path fill="none" stroke="#ABABAB" stroke-width="0.2" stroke-linecap="round" stroke-linejoin="round" stroke-miterlimit="10" d="
	M58.275,22.609c1.215-4.007,4.222-7.987,9.165-12.138c4.24-3.554,9.182-6.61,12.79-8.841c0.737-0.456,1.429-0.883,2.06-1.281L83.5,0
	l1.215,0.346c0.592,0.371,1.236,0.769,1.922,1.191c7.283,4.492,19.248,11.87,22.07,21.07 M87.068,43.361l11.889-11.868l1.585,0.657
	v-5.532c0-0.49-0.084-1.008-0.248-1.539c-1.709-5.514-11.239-11.705-16.782-15.145c-5.926,3.69-17.055,10.955-17.055,16.663v1.28
	l-1.44,0.596 M109.326,31.526l0.001,21.054 M100.542,45.84v-3.51l-2.483,2.479l1.03,1.031H100.542z"/>
<path fill="#1A783E" d="M106.829,24.408c-1.97-9.69-16.319-17.75-23.319-22.14c0,0,0,0-0.01,0c-3.76,2.37-9.65,5.79-14.601,9.94
	c-4.12,3.46-7.59,7.43-8.64,11.74l3.93,3.93v-1.28c0-7.34,12.48-15.1,19.32-19.33c6.229,3.84,16.89,10.49,18.95,17.14
	c0.229,0.74,0.35,1.48,0.35,2.21v21.49h-4.66l-3.299-3.3l5.709-5.7v-6.01c-6.17,6.16-11.72,11.7-11.72,11.7l3.31,3.31l4.24,4.25
	h10.67c0,0,0-3.85,0-9.16v-16.59C107.059,25.868,106.979,25.128,106.829,24.408z"/>
<path fill="none" stroke="#ABABAB" stroke-width="0.2" stroke-linecap="round" stroke-linejoin="round" stroke-miterlimit="10" d="
	M114.396,57.646l16.797,0.014l0.654,1.585l3.911-3.911c0.347-0.347,0.654-0.772,0.914-1.264c2.69-5.107,0.328-16.225-1.159-22.576
	c-4.515-1.053-10.677-2.389-15.933-2.389c-3.793,0-6.526,0.73-7.909,2.112l-0.904,0.905l-1.441-0.597 M138.495,65.023
	l-14.882,14.882 M108.708,22.611c2.876-1.54,6.481-2.288,10.985-2.288c1.279,0,2.649,0.063,4.076,0.188
	c5.512,0.485,11.166,1.818,15.295,2.792c0.845,0.199,1.636,0.386,2.363,0.551l1.102,0.608l0.615,1.105
	c0.155,0.682,0.332,1.42,0.518,2.205c1.975,8.327,5.216,22.004,0.705,30.503 M122.167,68.925l2.481-2.482l-3.51-0.003v1.458
	L122.167,68.925z"/>
<path fill="#1A783E" d="M141.768,58.216c5.461-8.244,1.012-24.091-0.832-32.145c0,0,0,0-0.008-0.008
	c-4.335-0.982-10.919-2.729-17.354-3.295c-5.36-0.467-10.62-0.113-14.411,2.191v5.559l0.905-0.905
	c5.189-5.19,19.502-1.853,27.33-0.007c1.688,7.12,4.524,19.36,1.279,25.52c-0.361,0.686-0.8,1.294-1.316,1.811l-15.194,15.195
	l-3.295-3.295V64.17l8.067,0.007l4.25-4.25c-8.719-0.006-16.561-0.014-16.561-0.014v4.682l-0.008,6.003l7.545,7.545
	c0,0,2.723-2.723,6.479-6.478l11.729-11.73C140.898,59.412,141.365,58.832,141.768,58.216z"/>
<path fill="none" stroke="#ABABAB" stroke-width="0.2" stroke-linecap="round" stroke-miterlimit="10" d="M135.451,109.327h-21.055
	 M144.366,58.273c4.005,1.215,7.985,4.222,12.14,9.166c3.555,4.243,6.611,9.187,8.844,12.796c0.455,0.735,0.881,1.425,1.277,2.055
	l0.455,1.151l-0.452,1.273c-0.371,0.592-0.771,1.238-1.192,1.925c-4.492,7.284-11.871,19.247-21.07,22.068 M124.646,100.541
	l-2.479-2.483l-1.03,1.031v1.452H124.646z"/>
<path fill="#1A783E" d="M142.568,106.829c9.689-1.969,17.75-16.319,22.141-23.319c0,0,0,0,0-0.011
	c-2.369-3.759-5.791-9.649-9.939-14.601c-3.461-4.119-7.43-7.59-11.74-8.641l-3.932,3.932h1.281c7.34,0,15.1,12.479,19.33,19.32
	c-3.84,6.229-10.49,16.89-17.141,18.95c-0.74,0.229-1.48,0.349-2.211,0.349h-21.488V98.15l3.3-3.301l5.7,5.71l6.01-0.001
	c-6.16-6.168-11.699-11.719-11.699-11.719l-3.311,3.311l-4.25,4.238l-0.001,10.671c0,0,3.851,0,9.161,0h16.589
	C141.107,107.059,141.848,106.978,142.568,106.829z"/>
<path fill="none" stroke="#ABABAB" stroke-width="0.2" stroke-linecap="round" stroke-miterlimit="10" d="M101.957,138.498
	l-14.884-14.882 M144.365,108.705c1.974,3.69,2.66,8.631,2.103,15.065c-0.485,5.51-1.819,11.164-2.793,15.293
	c-0.198,0.845-0.386,1.637-0.551,2.365l-0.608,1.102l-1.104,0.615c-0.683,0.156-1.42,0.332-2.205,0.518
	c-5.343,1.268-12.661,3.002-19.474,3.002l0,0c-4.524,0-8.15-0.753-11.031-2.295 M109.33,114.396l-0.014,16.795l-1.586,0.656
	l3.912,3.91c0.35,0.35,0.774,0.658,1.265,0.916c1.542,0.813,3.793,1.225,6.692,1.225c5.262,0,11.565-1.371,15.881-2.383
	c1.582-6.8,4.313-19.807,0.277-23.843l-0.904-0.905l0.598-1.439 M100.533,124.647l0.004-3.506h-1.459l-1.025,1.025L100.533,124.647z
	"/>
<path fill="#1A783E" d="M108.759,141.769c8.244,5.459,24.091,1.012,32.146-0.834c0,0,0,0,0.008-0.008
	c0.982-4.334,2.729-10.918,3.297-17.354c0.465-5.359,0.113-10.619-2.191-14.41h-5.561l0.904,0.904
	c5.19,5.19,1.854,19.502,0.008,27.33c-7.119,1.689-19.36,4.525-25.52,1.281c-0.687-0.361-1.293-0.802-1.812-1.318l-15.192-15.193
	l3.293-3.294l4.668-0.001l-0.009,8.068l4.25,4.248c0.007-8.717,0.015-16.56,0.015-16.56h-4.683l-6.002-0.008l-7.546,7.545
	c0,0,2.723,2.724,6.479,6.479l11.729,11.729C107.564,140.899,108.145,141.364,108.759,141.769z"/>
<path fill="none" stroke="#ABABAB" stroke-width="0.2" stroke-linecap="round" stroke-miterlimit="10" d="M57.649,135.45v-21.055
	 M108.702,144.369c-1.214,4.003-4.222,7.981-9.163,12.137c-4.239,3.55-9.178,6.604-12.783,8.834
	c-0.74,0.458-1.436,0.888-2.068,1.287l-1.209,0.351l-1.216-0.348c-0.592-0.371-1.237-0.77-1.923-1.191
	c-7.286-4.494-19.254-11.873-22.072-21.078 M79.908,123.614L68.02,135.481l-1.584-0.656v5.531c0,0.494,0.083,1.012,0.247,1.539
	c1.708,5.516,11.239,11.707,16.782,15.146c5.926-3.689,17.055-10.953,17.055-16.663v-1.28l1.439-0.597 M66.436,124.646l2.482-2.479
	l-1.032-1.031h-1.451L66.436,124.646z"/>
<path fill="#1A783E" d="M60.147,142.567c1.969,9.689,16.319,17.75,23.319,22.142c0,0,0,0,0.011,0
	c3.759-2.37,9.649-5.791,14.603-9.938c4.117-3.461,7.588-7.431,8.639-11.74l-3.932-3.932v1.28c0,7.341-12.479,15.101-19.32,19.33
	c-6.229-3.84-16.89-10.489-18.95-17.142c-0.229-0.739-0.349-1.479-0.348-2.211v-21.487h4.658l3.302,3.3l-5.71,5.7l0.001,6.008
	c6.168-6.157,11.718-11.698,11.718-11.698l-3.311-3.311l-4.238-4.249l-10.671-0.001c0,0,0,3.852-0.001,9.16l0.001,16.59
	C59.917,141.108,59.998,141.847,60.147,142.567z"/>
<path fill="none" stroke="#ABABAB" stroke-width="0.2" stroke-linecap="round" stroke-miterlimit="10" d="M28.474,101.959
	L43.36,87.074 M58.27,144.364c-2.876,1.539-6.483,2.289-10.991,2.289c0,0,0,0-0.001,0c-1.276,0-2.646-0.063-4.071-0.187
	c-5.511-0.485-11.164-1.819-15.292-2.792c-0.846-0.199-1.639-0.387-2.368-0.552l-1.152-0.66l-0.564-1.054
	c-0.156-0.682-0.332-1.42-0.518-2.206c-1.974-8.327-5.216-22.005-0.703-30.503 M52.582,109.33l-16.796-0.015l-0.656-1.584
	l-3.911,3.911c-0.35,0.351-0.658,0.774-0.915,1.264c-2.692,5.107-0.33,16.226,1.157,22.576c4.514,1.055,10.675,2.39,15.932,2.39
	c3.793,0,6.528-0.729,7.91-2.112l0.906-0.904l1.435,0.595 M45.835,100.536v-1.458l-1.026-1.026l-2.48,2.48L45.835,100.536z"/>
<path fill="#1A783E" d="M25.208,108.759c-5.459,8.244-1.012,24.09,0.833,32.145c0,0,0,0,0.007,0.009
	c4.334,0.981,10.918,2.729,17.354,3.297c5.358,0.465,10.619,0.112,14.41-2.192v-5.56l-0.906,0.905
	c-5.19,5.189-19.501,1.854-27.33,0.007c-1.689-7.119-4.525-19.36-1.279-25.521c0.361-0.686,0.8-1.293,1.318-1.811l15.193-15.193
	l3.293,3.293l0.001,4.668l-8.068-0.008l-4.248,4.249c8.716,0.007,16.558,0.015,16.558,0.015v-4.682l0.007-6.002l-7.545-7.546
	c0,0-2.723,2.723-6.478,6.478l-11.73,11.73C26.077,107.564,25.612,108.144,25.208,108.759z"/>
<path fill="none" stroke="#ABABAB" stroke-width="0.2" stroke-miterlimit="10" d="M31.528,57.649h21.054 M22.616,108.704
	c-4.007-1.213-7.989-4.22-12.145-9.165c-3.552-4.241-6.607-9.18-8.837-12.787c-0.458-0.74-0.886-1.433-1.285-2.066L0,83.476
	l0.347-1.215c0.372-0.593,0.771-1.24,1.195-1.928c4.492-7.283,11.871-19.246,21.07-22.065 M43.354,79.9L31.495,68.02l0.657-1.584
	H26.62c-0.495,0.001-1.014,0.084-1.538,0.247c-5.518,1.709-11.709,11.24-15.148,16.782c3.689,5.926,10.952,17.055,16.663,17.055
	h1.281l0.597,1.441 M44.808,68.918l1.031-1.032v-1.451h-3.508L44.808,68.918z"/>
<path fill="none" stroke="#ABABAB" stroke-width="0.2" stroke-miterlimit="10" d="M123.628,87.096l11.858,11.879l-0.657,1.585
	l5.532,0.001c0.494-0.002,1.014-0.084,1.537-0.248c5.519-1.709,11.709-11.239,15.147-16.781
	c-3.688-5.926-10.952-17.055-16.663-17.055h-1.279l-0.598-1.441"/>
<path fill="#1A783E" d="M24.408,60.148c-9.689,1.969-17.749,16.318-22.14,23.318c0,0,0,0,0,0.01c2.37,3.76,5.791,9.65,9.939,14.604
	c3.46,4.117,7.429,7.588,11.741,8.638l3.93-3.931h-1.281c-7.339,0-15.1-12.479-19.33-19.32c3.839-6.229,10.49-16.89,17.141-18.949
	c0.74-0.23,1.48-0.349,2.212-0.35l21.487,0.001v4.657l-3.3,3.302l-5.699-5.711H33.1c6.159,6.168,11.698,11.719,11.698,11.719
	l3.311-3.311l4.25-4.238V59.916c0,0-3.85-0.001-9.161-0.001l-16.589,0.001C25.868,59.917,25.129,59.998,24.408,60.148z"/>
<path fill="none" stroke="#ABABAB" stroke-width="0.2" stroke-linecap="round" stroke-miterlimit="10" d="M22.613,58.272
	c-1.974-3.689-2.663-8.631-2.106-15.065c0.487-5.509,1.82-11.16,2.793-15.287c0.2-0.848,0.388-1.643,0.553-2.373l0.607-1.101
	l1.105-0.615c0.682-0.156,1.421-0.332,2.206-0.518c5.343-1.266,12.661-3.001,19.474-3.001c4.522,0,8.147,0.751,11.029,2.293
	 M57.647,52.581l0.014-16.795l1.584-0.656l-3.911-3.911c-0.351-0.35-0.774-0.657-1.26-0.911c-1.548-0.816-3.801-1.228-6.701-1.228
	c-5.262,0-11.564,1.37-15.879,2.382c-1.581,6.798-4.314,19.804-0.276,23.841l0.906,0.907l-0.597,1.439 M65.017,28.475l14.89,14.889
	 M66.439,45.835h1.458l1.026-1.026l-2.481-2.481L66.439,45.835z"/>
<path fill="#1A783E" d="M58.216,25.208c-8.244-5.459-24.089-1.012-32.145,0.833c0,0,0,0-0.007,0.007
	c-0.982,4.334-2.729,10.918-3.298,17.354c-0.464,5.359-0.112,10.619,2.194,14.41h5.559l-0.905-0.906
	c-5.19-5.189-1.854-19.5-0.007-27.329c7.119-1.689,19.36-4.525,25.52-1.278c0.686,0.359,1.293,0.799,1.811,1.316l15.193,15.193
	l-3.293,3.294l-4.668,0.001l0.008-8.068l-4.249-4.248c-0.006,8.717-0.015,16.559-0.015,16.559h4.682l6.002,0.008l7.546-7.545
	c0,0-2.721-2.723-6.477-6.479L59.935,26.6C59.412,26.077,58.832,25.611,58.216,25.208z"/>
<path fill="none" stroke="#ABABAB" stroke-width="0.2" stroke-linecap="round" stroke-linejoin="round" stroke-miterlimit="10" d="
	M79.906,43.364l3.583-3.583l3.58,3.579 M52.582,57.648V52.58h5.064 M43.359,87.073l-3.588-3.585l3.586-3.583 M57.649,114.396h-5.067
	v-5.066 M87.07,123.612l-3.582,3.582l-3.58-3.58 M114.396,109.327v5.068h-5.066 M123.613,79.906l3.582,3.582l-3.58,3.581
	 M109.327,52.58h5.069v5.065"/>
<path fill="#1A783E" d="M112.129,71.628v-16.78H95.35l-11.861-11.86l-11.86,11.86h-16.78v16.78l-11.87,11.86l11.87,11.86v16.78
	h16.78l11.86,11.859l11.861-11.859h16.779v-16.78l11.859-11.86L112.129,71.628z M107.879,93.588v14.29h-14.29l-10.101,10.102
	l-10.1-10.102h-14.29v-14.29l-10.1-10.1l10.1-10.1v-14.29h14.29l10.1-10.1l10.101,10.1h14.29v14.29l10.1,10.1L107.879,93.588z"/>
<path fill="none" stroke="#ABABAB" stroke-width="0.2" stroke-linejoin="round" stroke-miterlimit="10" d="M101.316,105.61h4.295
	V92.648l9.16-9.161l-9.16-9.161V61.365h-5.799v-0.001c0.586,0.76,1.013,1.583,1.153,2.404c0.2,1.163-0.118,2.239-0.87,3.065v4.757
	h5.502v3.435l-1.19,0.97v9.803l-0.763,0.762c-2.328,2.327-2.328,2.327-2.328,5.008V105.61L101.316,105.61z"/>
<path fill="none" stroke="#ABABAB" stroke-width="0.2" stroke-linejoin="round" stroke-miterlimit="10" d="M60.626,91.909
	c1.066-7.596,7.117-13.229,12.734-15.3l0.045-0.045l2.155-5.603h4.065v5.186c1.51,0.396,3.077,1.067,4.585,1.957v-2.266l-1.036-0.97
	V71.59h5.518v-4.767c-0.746-0.824-1.063-1.896-0.864-3.054c0.266-1.55,1.555-3.111,3.001-4.231l0.001,0.005l-7.341-7.339
	l-9.16,9.161H61.367v12.962l-9.161,9.161l8.422,8.422L60.626,91.909z"/>
<path fill="#FBB716" d="M103.253,73.858v0.46l-1.114,0.97h-0.32c-0.108,0-0.209,0.16-0.209,0.35v3.09c0,0.19,0.101,0.34,0.209,0.34
	h0.32v5.79c-3.05,3.05-3.09,3.05-3.09,6.71v13.9H92.6l-9.111,9.109l-9.1-9.109h-11.66v-11.19c0-9.65,8.91-15.7,14.27-16.23
	c0.04-0.01,0.08-0.01,0.12-0.01v-1.23h-0.75l0.81-0.81v-0.82h-0.81l0.75-1.95h0.24v4.81c2.66,0.23,6.21,1.84,9.12,4.59
	c0.711,0.67,1.391,1.42,2.011,2.23c0.78,1.02,1.46,2.16,1.989,3.39c0.511,1.18,0.891,2.45,1.09,3.81
	c0.051,0.35,0.091,0.7,0.111,1.06c0.039,0.38,0.049,0.77,0.049,1.16v5.96h2.121v-7.53c-0.211-2.95-1.15-5.59-2.521-7.85
	c-0.26-0.45-0.54-0.87-0.85-1.28c-1.15-1.62-2.53-3.03-4-4.19v-0.32h0.319c0.109,0,0.21-0.15,0.21-0.34v-3.09
	c0-0.19-0.101-0.35-0.21-0.35h-0.319l-1.055-0.97v-0.46h5.534v-8.12c-2.892-1.5,1.8-5.33,3.438-5.56c1.641,0.23,6.32,4.06,3.44,5.56
	h-0.011v8.12H103.253z"/>
<path fill="#174889" d="M80.194,179.333c1.601,0.939,2.244,3.462,1.247,4.686c-0.524,0.646-1.181,1.006-2.017,0.797
	c-0.963-0.239-1.612,0.131-2.038,0.953c-1.126,2.178-3.357,3.035-5.19,4.367c-0.047,0.034-0.119,0.036-0.16,0.073
	c-1.371,1.267-2.903,1.405-4.754,1.222c-1.686-0.17-3.126,0.946-4.051,2.322c0.649,0,1.317-0.074,1.96,0.018
	c0.809,0.117,1.102,0.707,1.017,1.492c-0.181,1.684-2.272,4.098-3.911,4.516c-0.143,0.037-0.286,0.074-0.432,0.095
	c-3.344,0.455-5.936,2.446-8.639,4.215c-5.848,3.821-12.202,6.411-19.111,7.44c-2.542,0.38-5.171,0.39-7.744,0.248
	c-1.414-0.077-2.842-0.705-4.176-1.287c-1.462-0.639-2.396-1.87-2.899-3.397c-0.117-0.349-0.222-0.702-0.385-1.223
	c-0.995,1.804-1.491,3.834-3.543,4.567c-1.196,0.426-2.426,0.76-3.64,1.137c-0.125-0.176-0.25-0.352-0.373-0.527
	c0.305-0.162,0.649-0.275,0.911-0.492c1.137-0.936,2.298-1.852,3.363-2.865c2.302-2.193,3.663-4.937,4.507-7.974
	c0.299-1.073,0.703-2.122,1.102-3.164c0.123-0.317,0.391-0.581,0.593-0.87c0.077,0.035,0.155,0.072,0.232,0.109
	c-0.179,0.874-0.366,1.747-0.532,2.624c-0.149,0.78-0.302,1.562-0.407,2.351c-0.307,2.315,0.79,4.146,2.943,5.076
	c1.841,0.794,3.772,1.116,5.752,1.245c5.835,0.379,11.357-0.995,16.724-3.089c2.38-0.93,4.691-2.046,6.988-3.165
	c0.536-0.265,0.979-0.835,1.312-1.36c0.674-1.066,1.197-2.232,1.875-3.298c0.518-0.812,1.108-1.604,1.792-2.278
	c1.084-1.066,2.087-1.051,3.23-0.168c1.089-1.162,2.118-2.379,3.276-3.453c0.72-0.67,1.586-1.246,2.487-1.631
	c0.624-0.267,1.504-0.359,2.116-0.127c1.037,0.395,1.678,0.096,2.3-0.652c0.292-0.35,0.534-0.654,1.153-0.575
	c0.331,0.041,0.792-0.513,1.11-0.871c0.307-0.347,0.544-0.587,1.084-0.542c0.815,0.068,1.204-0.561,1.588-1.193
	C77.948,182.884,79.081,181.112,80.194,179.333z M55.537,199.597c0.053,0.055,0.106,0.112,0.16,0.17
	c1.6-0.729,3.247-1.379,4.508-2.701c0.12-0.127,0.22-0.279,0.3-0.434c0.354-0.682,0.141-1.141-0.604-1.295
	c-0.955-0.197-1.706,0.227-2.225,0.941C56.906,197.345,56.244,198.487,55.537,199.597z M59.534,199.244
	c0.074,0.085,0.149,0.169,0.223,0.254c0.734-0.345,1.492-0.646,2.195-1.045c0.842-0.476,1.658-1.007,2.439-1.576
	c0.215-0.157,0.443-0.644,0.355-0.793c-0.146-0.244-0.573-0.505-0.834-0.463c-0.616,0.101-1.355,0.217-1.771,0.612
	C61.186,197.147,60.393,198.229,59.534,199.244z"/>
<path fill="#174889" d="M143.208,190.08c1.051-0.947,2.05-1.94,3.146-2.812c0.853-0.672,1.772-1.31,2.76-1.733
	c0.578-0.251,1.389-0.197,2.021-0.022c0.705,0.193,1.211,0.112,1.764-0.326c0.656-0.521,1.068-1.396,2.115-1.408
	c0.215-0.004,0.422-0.549,0.633-0.844c0.23-0.318,0.463-0.64,0.812-0.883c-0.269,1.742-0.772,3.346-2.319,4.385
	c-0.505,0.338-1.088,0.571-1.563,0.943c-0.948,0.742-1.856,1.066-3.104,0.59c-1.115-0.426-2.229,0.068-3.162,0.78
	c-0.524,0.401-0.973,0.905-1.535,1.44c0.729-0.066,1.314-0.188,1.894-0.158c0.978,0.051,1.44,0.585,1.364,1.564
	c-0.036,0.473-0.159,0.981-0.389,1.391c-0.981,1.738-2.168,3.164-4.348,3.564c-2.322,0.428-4.426,1.459-6.412,2.793
	c-10.088,6.768-21.246,9.982-33.374,9.832c-3.43-0.043-6.821-0.438-10.085-1.615c-0.247-0.09-0.779,0.111-0.928,0.342
	c-0.488,0.766-0.826,1.629-1.29,2.414c-0.694,1.179-1.345,2.408-2.213,3.449c-0.53,0.635-1.384,1.086-2.181,1.391
	c-0.769,0.292-1.242-0.344-0.896-1.104c0.174-0.382,0.422-0.757,0.724-1.047c2.539-2.425,4.221-5.436,5.826-8.49
	c1.016-1.924,1.752-2.32,3.825-1.688c4.849,1.48,9.8,1.563,14.793,1.249c7.989-0.507,15.604-2.396,22.765-6.026
	c0.685-0.345,1.127-0.809,1.521-1.474c1.091-1.832,2.291-3.601,3.474-5.375c0.253-0.378,0.597-0.7,0.937-1.004
	C141.083,189.036,142.093,189.054,143.208,190.08z M142.113,193.601c-0.227-1.738-0.944-2.226-2.227-1.641
	c-0.324,0.146-0.67,0.357-0.873,0.639c-1.015,1.379-1.982,2.793-2.967,4.193c0.033,0.027,0.067,0.059,0.1,0.086
	c1.91-1.113,3.817-2.229,5.728-3.34c0.065,0.081,0.133,0.158,0.199,0.24c-0.423,0.734-0.845,1.475-1.412,2.465
	c1.687-0.698,3.137-1.246,4.528-1.913c0.455-0.218,0.838-0.706,1.11-1.158c0.32-0.528,0.104-0.937-0.555-1.026
	c-0.959-0.129-1.812,0.129-2.58,0.695C142.855,193.069,142.542,193.292,142.113,193.601z"/>
<path fill="#174889" d="M68.755,195.495c-0.1,0.4-0.159,0.818-0.309,1.201c-1.077,2.775-2.187,5.541-3.249,8.32
	c-0.204,0.531-0.29,1.121-0.353,1.693c-0.317,2.863,0.926,4.473,3.758,4.9c3.87,0.588,7.658-1.541,9.177-5.155
	c0.463-1.097,0.359-1.321-0.801-1.708c-0.26-0.087-0.528-0.148-0.787-0.236c-1.354-0.463-1.908-1.266-1.828-2.686
	c0.095-1.706,0.619-3.295,1.507-4.74c1.573-2.564,3.484-4.857,5.887-6.684c0.86-0.652,1.87-1.129,2.854-1.594
	c0.589-0.277,1.033-0.012,0.772,0.682c-0.47,1.248-1.016,2.47-1.584,3.677c-0.083,0.176-0.455,0.272-0.704,0.302
	c-0.549,0.063-1.174-0.104-1.641,0.105c-2.007,0.896-3.446,2.468-4.683,4.236c-0.418,0.601-0.209,1.092,0.366,1.469
	c0.152,0.098,0.311,0.211,0.481,0.257c1.63,0.444,2.143,1.675,2.022,3.333c-0.24,3.354-1.345,6.432-3.136,9.24
	c-1.382,2.172-3.249,3.838-5.869,4.32c-1.118,0.206-2.315,0.248-3.44,0.104c-2.383-0.313-3.896-2.141-4.164-4.748
	c-0.312-3.027,0.413-5.889,1.526-8.643c0.934-2.308,2.058-4.539,3.119-6.795c0.172-0.365,0.462-0.676,0.697-1.012
	C68.503,195.39,68.629,195.44,68.755,195.495z"/>
<path fill="#174889" d="M91.459,200.308c0.701-0.634,1.355-1.218,2.006-1.809c0.813-0.738,1.626-1.479,2.426-2.229
	c0.688-0.646,0.774-1.432,0.26-2.172c-0.521-0.746-1.193-1.382-1.77-2.092c-0.16-0.197-0.363-0.544-0.291-0.713
	c0.612-1.434,1.283-2.841,1.949-4.283c3.479,2.706,3.807,5.494,1.299,10.168C96.458,198.819,92.907,200.778,91.459,200.308z"/>
<path fill="#174889" d="M87.037,202.422c0.057-0.255,0.095-0.517,0.17-0.765c0.921-2.993,1.415-6.055,1.72-9.172
	c0.216-2.186,1.423-4.063,2.359-6.213c0.121,0.297,0.182,0.371,0.173,0.438c-0.391,3.234-0.58,6.514-1.259,9.686
	c-0.418,1.951-1.577,3.744-2.423,5.599c-0.096,0.211-0.325,0.358-0.492,0.536C87.201,202.495,87.121,202.459,87.037,202.422z"/>
<path fill="#174889" d="M75.69,215.562c0.294-0.408,0.432-0.697,0.654-0.887c0.637-0.547,1.291-1.078,1.967-1.572
	c2.178-1.586,3.738-3.613,4.547-6.199c0.32-1.03,0.64-2.061,0.981-3.082c0.147-0.432,0.353-0.846,0.531-1.266
	c0.101,0.02,0.198,0.036,0.298,0.057c0,0.472,0.082,0.961-0.014,1.414c-0.424,1.99-0.938,3.963-1.354,5.957
	c-0.755,3.66-3.476,4.916-6.706,5.574C76.378,215.603,76.143,215.562,75.69,215.562z"/>
<g>
	<path fill="#174889" d="M144.245,174.426c1.037,1.125,1.903,2.063,2.764,2.997c0.585-1.068,1.259-2.305,1.931-3.533
		c3.65,1.885,3.17,3.922,1.322,6.436c-0.472,0.643-0.974,0.658-1.578,0.1c-0.582-0.541-1.252-0.986-1.912-1.496
		c-0.463,0.772-0.867,1.533-1.355,2.238c-0.41,0.588-0.875,0.77-1.566,0.205c-2.756-2.246-2.5-1.333-0.996-4.46
		C143.215,176.155,143.669,175.446,144.245,174.426z"/>
	<path fill="#174889" d="M146.299,168.847c0.405,0.305,0.646,0.473,0.872,0.658c2.197,1.79,2.3,3.971,0.302,6.041
		c-0.447,0.465-0.845,0.572-1.398,0.114c-2.771-2.296-2.574-1.427-1.098-4.442C145.361,170.435,145.828,169.69,146.299,168.847z"/>
</g>
<g>
	<path fill="#174889" d="M67.839,174.765c1.037,1.125,1.903,2.064,2.764,2.998c0.585-1.068,1.258-2.306,1.93-3.533
		c3.651,1.885,3.17,3.922,1.323,6.435c-0.472,0.644-0.974,0.657-1.578,0.101c-0.583-0.541-1.252-0.988-1.912-1.498
		c-0.463,0.773-0.867,1.534-1.356,2.239c-0.41,0.589-0.875,0.769-1.566,0.205c-2.756-2.246-2.501-1.333-0.996-4.46
		C66.81,176.495,67.264,175.785,67.839,174.765z"/>
	<path fill="#174889" d="M69.894,169.185c0.405,0.307,0.647,0.474,0.872,0.66c2.197,1.789,2.299,3.971,0.302,6.041
		c-0.447,0.463-0.845,0.571-1.399,0.113c-2.771-2.296-2.574-1.426-1.097-4.441C68.956,170.774,69.422,170.028,69.894,169.185z"/>
</g>
<circle fill="#FFFFFF" cx="65.294" cy="100.035" r="0.547"/>
<circle fill="#FFFFFF" cx="75.432" cy="100.035" r="0.547"/>
<circle fill="#FFFFFF" cx="78.813" cy="100.035" r="0.547"/>
<circle fill="#FFFFFF" cx="82.195" cy="100.035" r="0.547"/>
<circle fill="#FFFFFF" cx="85.574" cy="100.035" r="0.547"/>
<circle fill="#FFFFFF" cx="88.957" cy="100.035" r="0.547"/>
<circle fill="#FFFFFF" cx="68.671" cy="100.035" r="0.547"/>
<circle fill="#FFFFFF" cx="72.053" cy="100.035" r="0.547"/>
<path fill="#FFFFFF" d="M93.782,78.725c0,0.191,0.095,0.347,0.212,0.347h0.631c0.117,0,0.211-0.156,0.211-0.347v-3.091
	c0-0.19-0.094-0.346-0.211-0.346h-0.631c-0.117,0-0.212,0.155-0.212,0.346V78.725z"/>
<path fill="#FFFFFF" d="M95.74,78.725c0,0.191,0.095,0.347,0.212,0.347h0.631c0.117,0,0.211-0.156,0.211-0.347v-3.091
	c0-0.19-0.094-0.346-0.211-0.346h-0.631c-0.117,0-0.212,0.155-0.212,0.346V78.725z"/>
<path fill="#FFFFFF" d="M97.697,78.725c0,0.191,0.095,0.347,0.212,0.347h0.631c0.117,0,0.211-0.156,0.211-0.347v-3.091
	c0-0.19-0.094-0.346-0.211-0.346h-0.631c-0.117,0-0.212,0.155-0.212,0.346V78.725z"/>
<path fill="#FFFFFF" d="M99.654,78.725c0,0.191,0.095,0.347,0.212,0.347h0.631c0.116,0,0.211-0.156,0.211-0.347v-3.091
	c0-0.19-0.095-0.346-0.211-0.346h-0.631c-0.117,0-0.212,0.155-0.212,0.346V78.725z"/>
<path fill="#FFFFFF" d="M92.876,75.634c0-0.191-0.095-0.347-0.212-0.347h-0.631c-0.117,0-0.211,0.156-0.211,0.347v3.091
	c0,0.19,0.094,0.346,0.211,0.346h0.631c0.117,0,0.212-0.155,0.212-0.346V75.634z"/>
<path fill="#FFFFFF" d="M90.919,75.634c0-0.191-0.095-0.347-0.212-0.347h-0.631c-0.117,0-0.211,0.156-0.211,0.347v3.091
	c0,0.19,0.094,0.346,0.211,0.346h0.631c0.117,0,0.212-0.155,0.212-0.346V75.634z"/>
<path fill="#FFFFFF" d="M88.962,75.634c0-0.191-0.095-0.347-0.212-0.347h-0.63c-0.117,0-0.211,0.156-0.211,0.347v3.091
	c0,0.19,0.094,0.346,0.211,0.346h0.631c0.117,0,0.212-0.155,0.212-0.346L88.962,75.634L88.962,75.634z"/>
</svg>
