<?xml version="1.0" encoding="utf-8"?>
<!-- Generator: Adobe Illustrator 24.1.1, SVG Export Plug-In . SVG Version: 6.00 Build 0)  -->
<svg version="1.1" id="Layer_1" xmlns="http://www.w3.org/2000/svg" xmlns:xlink="http://www.w3.org/1999/xlink" x="0px" y="0px"
	 viewBox="0 0 1920 539" style="enable-background:new 0 0 1920 539;" xml:space="preserve">
<style type="text/css">
	.st0{opacity:0.5;fill-rule:evenodd;clip-rule:evenodd;fill:#EFF0E9;}
</style>
<path class="st0" d="M1920,435.3c-24.1,22.8-52.1,40.4-83.9,52.9c-20.6,8.1-40.8,14.7-56.3,19.3c-8.8,2.7-16.2,4.7-21.1,5.9
	c-13.8,3.3-28.1,6.2-50,7.3c-67.7,3.3-167.9-21.2-227.2-38c-39.5-11.3-160.8-44.6-363.7-100l-238-66.1L208.5,139.2
	c-31.5-8.1-60-18.8-85.6-32.3C84.5,86.8,41.3,47.7,32.7,38.3C27,32,16.1,19.2,0,0v539h1920L1920,435.3z"/>
</svg>
